<svg viewBox="0 0 640 400" data-background-color="#6936f5" preserveAspectRatio="xMidYMid meet" height="400" width="640" xmlns="http://www.w3.org/2000/svg" xmlns:xlink="http://www.w3.org/1999/xlink"><rect width="640" height="400" x="0" y="0" opacity="1" fill="#6936f5" data-fill-palette-color="background" id="background"></rect><g id="tight-bounds" transform="matrix(1,0,0,1,122.24000000000001,119.86200337054775)"><svg viewBox="0 0 395.52 160.2759932589045" height="160.2759932589045" width="395.52"><g><svg viewBox="0 0 496.0163926208157 200.99999999999997" height="160.2759932589045" width="395.52"><g><rect width="5.497762029498525" height="200.99999999999997" x="110.78188766550045" y="0" fill="#ffffff" opacity="1" stroke-width="0" stroke="transparent" fill-opacity="1" class="rect-o-0" data-fill-palette-color="primary" rx="1%" id="o-0" data-palette-color="#ffffff"></rect></g><g transform="matrix(1,0,0,1,130.6716968926391,0.4999999999999858)"><svg viewBox="0 0 365.3446957281766 200" height="200" width="365.3446957281766"><g><svg viewBox="0 0 365.3446957281766 200" height="200" width="365.3446957281766"><g><svg viewBox="0 0 365.3446957281766 200" height="200" width="365.3446957281766"><g transform="matrix(1,0,0,1,0,0)"><svg width="365.3446957281766" viewBox="2.6399998664855957 -31.380002975463867 192.19000244140625 101.98001098632812" height="200" data-palette-color="#ffffff"><svg></svg><svg></svg><svg></svg><g class="undefined-text-0" data-fill-palette-color="primary" id="text-0"><path d="M4.31-1.9v-27.58c0-0.46 0.133-0.823 0.4-1.09v0c0.46-0.46 0.96-0.73 1.5-0.81v0h10.11c2.8 0 5.1 0.747 6.9 2.24v0c1.76 1.42 2.64 3.317 2.64 5.69v0c0 1.727-0.537 3.22-1.61 4.48v0c-1.147 1.307-2.62 2.17-4.42 2.59v0 0.06c3.447 0.613 5.727 2.26 6.84 4.94v0c0.307 0.847 0.46 1.803 0.46 2.87 0 1.073-0.173 2.13-0.52 3.17-0.347 1.033-0.94 1.933-1.78 2.7v0c-1.92 1.76-4.623 2.64-8.11 2.64v0h-10.51c-0.46 0-0.863-0.153-1.21-0.46v0c-0.46-0.38-0.69-0.86-0.69-1.44zM8.1-14.71v11.72h6.61c2.913 0 4.963-0.42 6.15-1.26v0c1.493-0.92 2.24-2.453 2.24-4.6v0c0-3.373-1.99-5.29-5.97-5.75v0c-1.193-0.073-2.537-0.11-4.03-0.11v0zM21.9-23.1v0c0-3.527-2.433-5.253-7.3-5.18v0h-6.5v10.69h6.56c3.213 0 5.413-0.977 6.6-2.93v0c0.427-0.687 0.64-1.547 0.64-2.58zM53.56 0h-16.89c-0.46 0-0.843-0.153-1.15-0.46v0c-0.54-0.46-0.81-0.94-0.81-1.44v0-27.53c0-0.727 0.383-1.3 1.15-1.72v0c0.233-0.073 0.463-0.15 0.69-0.23v0h16.38c0.573 0 0.997 0.173 1.27 0.52 0.267 0.347 0.4 0.72 0.4 1.12 0 0.4-0.153 0.773-0.46 1.12-0.307 0.347-0.71 0.52-1.21 0.52v0h-14.42v10.4h13.73c0.573 0 0.997 0.163 1.27 0.49 0.267 0.327 0.4 0.7 0.4 1.12v0c0 0.38-0.153 0.723-0.46 1.03-0.307 0.307-0.71 0.46-1.21 0.46v0h-13.73v11.38h15.05c0.54 0 0.943 0.173 1.21 0.52 0.267 0.347 0.4 0.73 0.4 1.15 0 0.42-0.143 0.783-0.43 1.09-0.287 0.307-0.68 0.46-1.18 0.46zM68.62-28.1h-8.56c-0.573 0-0.997-0.173-1.27-0.52-0.267-0.347-0.4-0.72-0.4-1.12 0-0.4 0.133-0.773 0.4-1.12 0.273-0.347 0.697-0.52 1.27-0.52v0h20.97c0.54 0 0.943 0.173 1.21 0.52 0.267 0.347 0.4 0.72 0.4 1.12 0 0.4-0.143 0.773-0.43 1.12-0.287 0.347-0.68 0.52-1.18 0.52v0h-8.5v26.2c0 0.887-0.383 1.483-1.15 1.79v0c-0.233 0.073-0.54 0.11-0.92 0.11-0.38 0-0.783-0.153-1.21-0.46-0.42-0.307-0.63-0.787-0.63-1.44v0zM93.97-28.1h-8.57c-0.573 0-0.993-0.173-1.26-0.52-0.267-0.347-0.4-0.72-0.4-1.12 0-0.4 0.133-0.773 0.4-1.12 0.267-0.347 0.687-0.52 1.26-0.52v0h20.98c0.533 0 0.937 0.173 1.21 0.52 0.267 0.347 0.4 0.72 0.4 1.12 0 0.4-0.143 0.773-0.43 1.12-0.287 0.347-0.68 0.52-1.18 0.52v0h-8.51v26.2c0 0.887-0.383 1.483-1.15 1.79v0c-0.227 0.073-0.533 0.11-0.92 0.11-0.38 0-0.78-0.153-1.2-0.46-0.42-0.307-0.63-0.787-0.63-1.44v0zM131.72 0h-16.89c-0.46 0-0.843-0.153-1.15-0.46v0c-0.54-0.46-0.81-0.94-0.81-1.44v0-27.53c0-0.727 0.383-1.3 1.15-1.72v0c0.233-0.073 0.463-0.15 0.69-0.23v0h16.38c0.573 0 0.997 0.173 1.27 0.52 0.267 0.347 0.4 0.72 0.4 1.12 0 0.4-0.153 0.773-0.46 1.12-0.307 0.347-0.71 0.52-1.21 0.52v0h-14.42v10.4h13.73c0.573 0 0.997 0.163 1.27 0.49 0.267 0.327 0.4 0.7 0.4 1.12v0c0 0.38-0.153 0.723-0.46 1.03-0.307 0.307-0.71 0.46-1.21 0.46v0h-13.73v11.38h15.05c0.54 0 0.943 0.173 1.21 0.52 0.267 0.347 0.4 0.73 0.4 1.15 0 0.42-0.143 0.783-0.43 1.09-0.287 0.307-0.68 0.46-1.18 0.46zM140.34-1.9v-27.53c0-0.76 0.423-1.353 1.27-1.78v0c0.227-0.113 0.477-0.17 0.75-0.17v0h9.36c5.06 0 8.47 1.34 10.23 4.02v0c0.613 1.113 0.92 2.523 0.92 4.23 0 1.707-0.553 3.153-1.66 4.34-1.113 1.187-2.703 1.99-4.77 2.41v0 0.17c1.993 0.347 3.41 1.093 4.25 2.24v0c0.653 0.96 1.067 2.247 1.24 3.86 0.167 1.607 0.31 2.87 0.43 3.79v0c0.113 1.34 0.227 2.813 0.34 4.42v0c0 0.653-0.2 1.133-0.6 1.44-0.407 0.307-0.857 0.46-1.35 0.46-0.5 0-0.94-0.143-1.32-0.43-0.387-0.287-0.617-0.717-0.69-1.29v0c-0.153-1.767-0.29-3.33-0.41-4.69-0.113-1.36-0.247-2.51-0.4-3.45-0.153-0.933-0.363-1.707-0.63-2.32-0.267-0.613-0.63-1.093-1.09-1.44v0c-0.767-0.573-2.28-0.9-4.54-0.98v0h-7.42v12.7c0 0.92-0.4 1.517-1.2 1.79v0c-0.233 0.073-0.53 0.11-0.89 0.11-0.367 0-0.76-0.153-1.18-0.46-0.427-0.307-0.64-0.787-0.64-1.44zM144.25-17.59h5.75c3.64 0 6.093-0.573 7.36-1.72v0c0.92-0.807 1.417-2.013 1.49-3.62v0c0-2.26-0.843-3.753-2.53-4.48v0c-0.92-0.46-1.84-0.72-2.76-0.78-0.92-0.06-1.647-0.09-2.18-0.09v0h-7.13z" data-fill-palette-color="primary" fill="#ffffff" opacity="1"></path><path d="M7.13 11.62v0c0 0.807 0.267 1.563 0.8 2.27 0.54 0.713 1.23 1.297 2.07 1.75 0.84 0.46 1.797 0.863 2.87 1.21 1.073 0.347 2.203 0.71 3.39 1.09 1.193 0.387 2.363 0.81 3.51 1.27 1.147 0.46 2.143 1.033 2.99 1.72v0c1.84 1.493 2.76 3.523 2.76 6.09v0c0 1.227-0.287 2.387-0.86 3.48-0.58 1.093-1.387 2.003-2.42 2.73v0c-2.107 1.533-4.923 2.3-8.45 2.3v0c-3.333 0-6.263-0.843-8.79-2.53v0c-1.573-0.993-2.36-1.837-2.36-2.53v0c0-0.613 0.307-1.11 0.92-1.49v0c0.153-0.153 0.347-0.23 0.58-0.23 0.227 0 0.477 0.097 0.75 0.29 0.267 0.187 0.58 0.417 0.94 0.69 0.367 0.267 0.827 0.563 1.38 0.89 0.56 0.32 1.147 0.617 1.76 0.89v0c1.527 0.613 3.02 0.9 4.48 0.86 1.453-0.04 2.62-0.157 3.5-0.35 0.887-0.187 1.673-0.51 2.36-0.97v0c1.453-1 2.2-2.267 2.24-3.8v0c0-1.913-0.937-3.387-2.81-4.42v0c-0.847-0.46-1.797-0.873-2.85-1.24-1.053-0.36-2.163-0.713-3.33-1.06-1.173-0.347-2.333-0.767-3.48-1.26-1.147-0.5-2.163-1.097-3.05-1.79v0c-1.873-1.493-2.81-3.407-2.81-5.74v0c0-1.227 0.297-2.377 0.89-3.45 0.593-1.073 1.407-1.957 2.44-2.65v0c1.993-1.413 4.483-2.14 7.47-2.18v0c4.333 0 7.82 1.4 10.46 4.2v0c0.153 0.227 0.23 0.483 0.23 0.77 0 0.287-0.01 0.527-0.03 0.72-0.013 0.193-0.117 0.387-0.31 0.58v0c-0.267 0.34-0.623 0.51-1.07 0.51-0.44 0-0.907-0.287-1.4-0.86v0c-1.267-0.92-2.283-1.513-3.05-1.78v0c-1.533-0.613-3.027-0.92-4.48-0.92v0c-1.88 0-3.49 0.383-4.83 1.15v0c-1.607 0.92-2.41 2.183-2.41 3.79zM49.43 30.01h0.05l10.41-22.99c0.607-1.3 1.063-2.123 1.37-2.47v0c0.653-0.573 1.317-0.86 1.99-0.86 0.667 0 1.183 0.077 1.55 0.23 0.36 0.153 0.677 0.363 0.95 0.63v0c0.647 0.653 0.97 1.517 0.97 2.59v0 26.21c0 0.573-0.18 1.003-0.54 1.29-0.367 0.287-0.78 0.43-1.24 0.43-0.46 0-0.86-0.143-1.2-0.43-0.347-0.287-0.52-0.717-0.52-1.29v0-25.75l-11.38 25.06c-0.46 1.147-1.263 1.72-2.41 1.72v0c-1 0-1.787-0.573-2.36-1.72v0l-11.32-24.95v25.64c0 0.573-0.183 1.003-0.55 1.29-0.36 0.287-0.77 0.43-1.23 0.43-0.46 0-0.873-0.143-1.24-0.43-0.367-0.287-0.55-0.717-0.55-1.29v0-26.21c0-1.687 0.613-2.76 1.84-3.22v0c0.427-0.073 0.86-0.13 1.3-0.17 0.44-0.04 0.84-0.003 1.2 0.11 0.367 0.12 0.683 0.293 0.95 0.52v0c0.46 0.387 1.037 1.267 1.73 2.64v0zM78.48 14.87c-0.367 1.587-0.55 3.137-0.55 4.65 0 1.513 0.183 3.077 0.55 4.69 0.36 1.607 0.98 3.013 1.86 4.22 0.887 1.207 1.98 2.173 3.28 2.9 1.3 0.733 2.89 1.1 4.77 1.1 1.88 0 3.49-0.367 4.83-1.1 1.34-0.727 2.43-1.693 3.27-2.9 0.847-1.207 1.47-2.613 1.87-4.22 0.407-1.613 0.61-3.177 0.61-4.69 0-1.513-0.203-3.063-0.61-4.65-0.4-1.593-1.023-2.993-1.87-4.2-0.84-1.207-1.93-2.173-3.27-2.9-1.34-0.727-2.95-1.09-4.83-1.09-1.88 0-3.47 0.363-4.77 1.09-1.3 0.727-2.393 1.693-3.28 2.9-0.88 1.207-1.5 2.607-1.86 4.2zM73.62 19.44v0c0-2.227 0.327-4.333 0.98-6.32 0.647-1.993 1.623-3.7 2.93-5.12v0c2.607-2.987 6.207-4.5 10.8-4.54v0c4.673 0 8.333 1.513 10.98 4.54v0c1.267 1.42 2.217 3.127 2.85 5.12 0.627 1.987 0.94 4.093 0.94 6.32v0c0 2.26-0.313 4.413-0.94 6.46-0.633 2.053-1.583 3.77-2.85 5.15v0c-2.647 2.987-6.307 4.48-10.98 4.48v0c-4.633 0-8.233-1.493-10.8-4.48v0c-1.307-1.46-2.283-3.193-2.93-5.2-0.653-2.013-0.98-4.15-0.98-6.41zM113.48 14.87c-0.367 1.587-0.55 3.137-0.55 4.65 0 1.513 0.183 3.077 0.55 4.69 0.36 1.607 0.98 3.013 1.86 4.22 0.887 1.207 1.98 2.173 3.28 2.9 1.3 0.733 2.89 1.1 4.77 1.1 1.88 0 3.49-0.367 4.83-1.1 1.34-0.727 2.43-1.693 3.27-2.9 0.847-1.207 1.47-2.613 1.87-4.22 0.407-1.613 0.61-3.177 0.61-4.69 0-1.513-0.203-3.063-0.61-4.65-0.4-1.593-1.023-2.993-1.87-4.2-0.84-1.207-1.93-2.173-3.27-2.9-1.34-0.727-2.95-1.09-4.83-1.09-1.88 0-3.47 0.363-4.77 1.09-1.3 0.727-2.393 1.693-3.28 2.9-0.88 1.207-1.5 2.607-1.86 4.2zM108.62 19.44v0c0-2.227 0.327-4.333 0.98-6.32 0.647-1.993 1.623-3.7 2.93-5.12v0c2.607-2.987 6.207-4.5 10.8-4.54v0c4.673 0 8.333 1.513 10.98 4.54v0c1.267 1.42 2.217 3.127 2.85 5.12 0.627 1.987 0.94 4.093 0.94 6.32v0c0 2.26-0.313 4.413-0.94 6.46-0.633 2.053-1.583 3.77-2.85 5.15v0c-2.647 2.987-6.307 4.48-10.98 4.48v0c-4.633 0-8.233-1.493-10.8-4.48v0c-1.307-1.46-2.283-3.193-2.93-5.2-0.653-2.013-0.98-4.15-0.98-6.41zM151.67 6.97h-8.57c-0.573 0-0.993-0.173-1.26-0.52-0.267-0.347-0.4-0.72-0.4-1.12 0-0.4 0.133-0.773 0.4-1.12 0.267-0.347 0.687-0.52 1.26-0.52v0h20.98c0.54 0 0.943 0.173 1.21 0.52 0.267 0.347 0.4 0.72 0.4 1.12 0 0.4-0.143 0.773-0.43 1.12-0.287 0.347-0.68 0.52-1.18 0.52v0h-8.51v26.2c0 0.887-0.38 1.483-1.14 1.79v0c-0.233 0.073-0.54 0.11-0.92 0.11-0.387 0-0.79-0.153-1.21-0.46-0.42-0.307-0.63-0.787-0.63-1.44v0zM190.86 17.14v-11.55c0-0.88 0.44-1.457 1.32-1.73v0c0.233-0.033 0.523-0.07 0.87-0.11 0.34-0.04 0.723 0.093 1.15 0.4 0.42 0.307 0.63 0.787 0.63 1.44v0 27.58c0 0.58-0.173 1.023-0.52 1.33v0c-0.46 0.38-0.95 0.57-1.47 0.57-0.513 0-0.97-0.153-1.37-0.46-0.407-0.307-0.61-0.787-0.61-1.44v0-12.76h-16.49v12.76c0 0.58-0.153 1.023-0.46 1.33v0c-0.46 0.38-0.96 0.57-1.5 0.57-0.533 0-0.993-0.153-1.38-0.46-0.38-0.307-0.57-0.787-0.57-1.44v0-27.58c0-0.88 0.42-1.457 1.26-1.73v0c0.233-0.033 0.523-0.07 0.87-0.11 0.34-0.04 0.723 0.093 1.15 0.4 0.42 0.307 0.63 0.787 0.63 1.44v0 11.55z" data-fill-palette-color="primary" fill="#ffffff" opacity="1"></path><path d="M7.13 46.69v0c0 0.807 0.267 1.563 0.8 2.27 0.54 0.713 1.23 1.297 2.07 1.75 0.84 0.46 1.797 0.863 2.87 1.21 1.073 0.347 2.203 0.71 3.39 1.09 1.193 0.387 2.363 0.81 3.51 1.27 1.147 0.46 2.143 1.033 2.99 1.72v0c1.84 1.493 2.76 3.523 2.76 6.09v0c0 1.227-0.287 2.387-0.86 3.48-0.58 1.093-1.387 2.003-2.42 2.73v0c-2.107 1.533-4.923 2.3-8.45 2.3v0c-3.333 0-6.263-0.843-8.79-2.53v0c-1.573-0.993-2.36-1.837-2.36-2.53v0c0-0.613 0.307-1.11 0.92-1.49v0c0.153-0.153 0.347-0.23 0.58-0.23 0.227 0 0.477 0.097 0.75 0.29 0.267 0.187 0.58 0.417 0.94 0.69 0.367 0.267 0.827 0.563 1.38 0.89 0.56 0.32 1.147 0.617 1.76 0.89v0c1.527 0.613 3.02 0.9 4.48 0.86 1.453-0.04 2.62-0.157 3.5-0.35 0.887-0.187 1.673-0.51 2.36-0.97v0c1.453-1 2.2-2.267 2.24-3.8v0c0-1.913-0.937-3.387-2.81-4.42v0c-0.847-0.46-1.797-0.873-2.85-1.24-1.053-0.36-2.163-0.713-3.33-1.06-1.173-0.347-2.333-0.767-3.48-1.26-1.147-0.5-2.163-1.097-3.05-1.79v0c-1.873-1.493-2.81-3.407-2.81-5.74v0c0-1.227 0.297-2.377 0.89-3.45 0.593-1.073 1.407-1.957 2.44-2.65v0c1.993-1.413 4.483-2.14 7.47-2.18v0c4.333 0 7.82 1.4 10.46 4.2v0c0.153 0.227 0.23 0.483 0.23 0.77 0 0.287-0.01 0.527-0.03 0.72-0.013 0.193-0.117 0.387-0.31 0.58v0c-0.267 0.34-0.623 0.51-1.07 0.51-0.44 0-0.907-0.287-1.4-0.86v0c-1.267-0.92-2.283-1.513-3.05-1.78v0c-1.533-0.613-3.027-0.92-4.48-0.92v0c-1.88 0-3.49 0.383-4.83 1.15v0c-1.607 0.92-2.41 2.183-2.41 3.79zM30.52 54.62v0c0-1.993 0.287-4.003 0.86-6.03 0.573-2.033 1.453-3.777 2.64-5.23v0c2.533-3.22 6.137-4.83 10.81-4.83v0c2.68 0 5.283 0.593 7.81 1.78v0c0.653 0.267 0.98 0.707 0.98 1.32v0c0 1.153-0.46 1.75-1.38 1.79v0c-0.193 0-0.367-0.02-0.52-0.06v0c-2.64-0.92-4.737-1.38-6.29-1.38-1.553 0-2.847 0.173-3.88 0.52-1.033 0.34-1.933 0.817-2.7 1.43-0.767 0.613-1.417 1.323-1.95 2.13-0.54 0.807-0.963 1.707-1.27 2.7v0c-0.647 1.84-0.97 3.793-0.97 5.86v0c0 3.373 0.747 6.21 2.24 8.51v0c1.76 2.72 4.48 4.08 8.16 4.08v0c2.527 0 4.94-0.67 7.24-2.01v0c0.307-0.08 0.603-0.12 0.89-0.12 0.287 0 0.553 0.133 0.8 0.4 0.253 0.273 0.38 0.62 0.38 1.04 0 0.42-0.153 0.813-0.46 1.18-0.307 0.36-0.72 0.683-1.24 0.97-0.513 0.293-1.087 0.553-1.72 0.78-0.633 0.233-1.293 0.427-1.98 0.58v0c-1.46 0.38-2.84 0.57-4.14 0.57v0c-4.713 0-8.317-1.59-10.81-4.77v0c-2.333-2.873-3.5-6.61-3.5-11.21zM62.64 68.24v-27.53c0-0.76 0.423-1.353 1.27-1.78v0c0.227-0.113 0.477-0.17 0.75-0.17v0h9.36c5.06 0 8.47 1.34 10.23 4.02v0c0.613 1.113 0.92 2.523 0.92 4.23 0 1.707-0.553 3.153-1.66 4.34-1.113 1.187-2.703 1.99-4.77 2.41v0 0.17c1.987 0.347 3.403 1.093 4.25 2.24v0c0.653 0.96 1.063 2.247 1.23 3.86 0.173 1.607 0.32 2.87 0.44 3.79v0c0.113 1.34 0.227 2.813 0.34 4.42v0c0 0.653-0.2 1.133-0.6 1.44-0.407 0.307-0.857 0.46-1.35 0.46-0.5 0-0.943-0.143-1.33-0.43-0.38-0.287-0.61-0.717-0.69-1.29v0c-0.153-1.767-0.287-3.33-0.4-4.69-0.113-1.36-0.247-2.51-0.4-3.45-0.153-0.933-0.363-1.707-0.63-2.32-0.267-0.613-0.63-1.093-1.09-1.44v0c-0.767-0.573-2.28-0.9-4.54-0.98v0h-7.42v12.7c0 0.92-0.403 1.517-1.21 1.79v0c-0.227 0.073-0.523 0.11-0.89 0.11-0.36 0-0.75-0.153-1.17-0.46-0.427-0.307-0.64-0.787-0.64-1.44zM66.55 52.55h5.75c3.64 0 6.093-0.573 7.36-1.72v0c0.913-0.807 1.41-2.013 1.49-3.62v0c0-2.26-0.843-3.753-2.53-4.48v0c-0.92-0.46-1.84-0.72-2.76-0.78-0.92-0.06-1.647-0.09-2.18-0.09v0h-7.13zM96.24 49.94c-0.367 1.587-0.55 3.137-0.55 4.65 0 1.513 0.183 3.077 0.55 4.69 0.36 1.607 0.98 3.013 1.86 4.22 0.887 1.207 1.98 2.173 3.28 2.9 1.3 0.733 2.89 1.1 4.77 1.1 1.88 0 3.49-0.367 4.83-1.1 1.34-0.727 2.43-1.693 3.27-2.9 0.847-1.207 1.47-2.613 1.87-4.22 0.4-1.613 0.6-3.177 0.6-4.69 0-1.513-0.2-3.063-0.6-4.65-0.4-1.593-1.023-2.993-1.87-4.2-0.84-1.207-1.93-2.173-3.27-2.9-1.34-0.727-2.95-1.09-4.83-1.09-1.88 0-3.47 0.363-4.77 1.09-1.3 0.727-2.393 1.693-3.28 2.9-0.88 1.207-1.5 2.607-1.86 4.2zM91.38 54.51v0c0-2.227 0.327-4.333 0.98-6.32 0.647-1.993 1.623-3.7 2.93-5.12v0c2.607-2.987 6.207-4.5 10.8-4.54v0c4.673 0 8.333 1.513 10.98 4.54v0c1.267 1.42 2.213 3.127 2.84 5.12 0.633 1.987 0.95 4.093 0.95 6.32v0c0 2.26-0.317 4.413-0.95 6.46-0.627 2.053-1.573 3.77-2.84 5.15v0c-2.647 2.987-6.307 4.48-10.98 4.48v0c-4.633 0-8.233-1.493-10.8-4.48v0c-1.307-1.46-2.283-3.193-2.93-5.2-0.653-2.013-0.98-4.15-0.98-6.41zM146.03 70.14h-16.09c-0.88 0-1.493-0.383-1.84-1.15v0c-0.113-0.227-0.17-0.477-0.17-0.75v0-27.58c0-0.88 0.403-1.457 1.21-1.73v0c0.227-0.033 0.533-0.07 0.92-0.11 0.38-0.04 0.763 0.093 1.15 0.4 0.38 0.307 0.57 0.787 0.57 1.44v0 26.26h14.25c0.58 0 0.993 0.163 1.24 0.49 0.247 0.327 0.37 0.69 0.37 1.09 0 0.407-0.133 0.78-0.4 1.12-0.267 0.347-0.67 0.52-1.21 0.52zM171.21 70.14h-16.1c-0.88 0-1.49-0.383-1.83-1.15v0c-0.12-0.227-0.18-0.477-0.18-0.75v0-27.58c0-0.88 0.403-1.457 1.21-1.73v0c0.233-0.033 0.54-0.07 0.92-0.11 0.38-0.04 0.763 0.093 1.15 0.4 0.38 0.307 0.57 0.787 0.57 1.44v0 26.26h14.26c0.573 0 0.983 0.163 1.23 0.49 0.253 0.327 0.38 0.69 0.38 1.09 0 0.407-0.137 0.78-0.41 1.12-0.267 0.347-0.667 0.52-1.2 0.52z" data-fill-palette-color="primary" fill="#ffffff" opacity="1"></path></g></svg></g></svg></g></svg></g></svg></g><g transform="matrix(1,0,0,1,0,0.4999999999999716)"><svg viewBox="0 0 96.38984046786032 200.00000000000003" height="200.00000000000003" width="96.38984046786032"><g><svg xmlns="http://www.w3.org/2000/svg" xmlns:xlink="http://www.w3.org/1999/xlink" version="1.1" viewBox="25.834001541137695 2.0049986839294434 44.334991455078125 91.99100494384766" x="0" y="0" height="200.00000000000003" width="96.38984046786032" class="icon-icon-0" data-fill-palette-color="accent" id="icon-0"><path d="M27.836 26.168c-0.512 0-1.024-0.196-1.416-0.584-0.772-0.772-0.772-2.048 0-2.828l20.172-20.172c0.776-0.772 2.052-0.772 2.828 0 0.776 0.78 0.776 2.056 0 2.828l-20.172 20.172c-0.388 0.388-0.9 0.584-1.412 0.584z" fill="#ffffff" data-fill-palette-color="accent"></path><path d="M68.172 26.168c-0.512 0-1.024-0.196-1.416-0.584l-20.164-20.172c-0.776-0.772-0.776-2.048 0-2.828 0.776-0.772 2.052-0.772 2.828 0l20.164 20.172c0.78 0.78 0.78 2.056 0 2.828-0.388 0.388-0.9 0.584-1.412 0.584z" fill="#ffffff" data-fill-palette-color="accent"></path><path d="M48.004 93.996c-0.512 0-1.024-0.196-1.416-0.584l-20.172-20.164c-0.776-0.772-0.776-2.048 0-2.828 0.776-0.772 2.052-0.772 2.828 0l20.172 20.164c0.772 0.78 0.772 2.056 0 2.828-0.388 0.388-0.9 0.584-1.412 0.584z" fill="#ffffff" data-fill-palette-color="accent"></path><path d="M48.004 93.996c-0.512 0-1.024-0.196-1.416-0.584-0.78-0.772-0.78-2.048 0-2.828l20.164-20.164c0.776-0.772 2.052-0.772 2.828 0 0.776 0.78 0.776 2.056 0 2.828l-20.164 20.164c-0.388 0.388-0.9 0.584-1.412 0.584z" fill="#ffffff" data-fill-palette-color="accent"></path><path d="M60.004 47.996h-24c-1.1 0-2-0.9-2-2s0.9-2 2-2h24c1.1 0 2 0.9 2 2s-0.9 2-2 2z" fill="#ffffff" data-fill-palette-color="accent"></path></svg></g></svg></g></svg></g></svg><rect width="395.52" height="160.2759932589045" fill="none" stroke="none" visibility="hidden"></rect></g><defs></defs></svg>